<svg width="15" height="22" viewBox="0 0 15 22" fill="none" xmlns="http://www.w3.org/2000/svg">
<path d="M15 7.5C15 3.35786 11.6421 0 7.5 0C3.35786 0 0 3.35786 0 7.5C0 8.98607 0.439286 10.3682 1.18393 11.5339H1.17536C3.70393 15.4929 7.5 21.4286 7.5 21.4286L13.8246 11.5339H13.8171C14.5607 10.3682 15 8.98607 15 7.5ZM7.5 10.7143C5.72464 10.7143 4.28571 9.27536 4.28571 7.5C4.28571 5.72464 5.72464 4.28571 7.5 4.28571C9.27536 4.28571 10.7143 5.72464 10.7143 7.5C10.7143 9.27536 9.27536 10.7143 7.5 10.7143Z" fill="#004B7C"/>
</svg>
