<svg width="22" height="23" viewBox="0 0 22 23" fill="none" xmlns="http://www.w3.org/2000/svg">
<path d="M7.88132 3.06669H14.0146V4.60002H7.88132V3.06669ZM7.88132 12.2667H14.0146V13.8H7.88132V12.2667ZM7.88132 15.3333H14.0146V16.8667H7.88132V15.3333ZM21.896 23H0L1.91666 15.3333H4.81466V1.53336C4.81339 1.33143 4.85412 1.13144 4.93426 0.946094C5.01399 0.762094 5.12286 0.599561 5.25779 0.455428C5.3957 0.309979 5.56295 0.195514 5.74846 0.119629C5.93837 0.0403212 6.14219 -0.000337368 6.34799 2.88028e-05H15.548C15.7499 -0.001241 15.9499 0.0394874 16.1352 0.119629C16.3192 0.199362 16.4818 0.308228 16.6259 0.443162C16.7714 0.581064 16.8858 0.748317 16.9617 0.933828C17.0414 1.12549 17.0813 1.32636 17.0813 1.53336V15.3333H19.9793L21.896 23ZM6.34799 18.4H15.548V1.53336H6.34799V18.4ZM19.9333 21.4667L18.7833 16.8667H17.0813V19.9333H4.81466V16.8667H3.11266L1.96266 21.4667H19.9333Z" fill="#004B7C"/>
</svg>
