<svg width="18" height="18" viewBox="0 0 18 18" fill="none" xmlns="http://www.w3.org/2000/svg">
<path fill-rule="evenodd" clip-rule="evenodd" d="M4.84615 0C5.2285 0 5.53846 0.30996 5.53846 0.692308V1.38462H12.4615V0.692308C12.4615 0.30996 12.7716 0 13.1538 0C13.5361 0 13.8462 0.30996 13.8462 0.692308V1.38462H15.9231C17.0701 1.38462 18 2.31448 18 3.46154V15.9231C18 17.0701 17.0701 18 15.9231 18H2.07692C0.929866 18 0 17.0701 0 15.9231V3.46154C0 2.31448 0.929866 1.38462 2.07692 1.38462H4.15385V0.692308C4.15385 0.30996 4.46381 0 4.84615 0ZM12.4615 2.76923V3.46154C12.4615 3.84389 12.7716 4.15385 13.1538 4.15385C13.5361 4.15385 13.8462 3.84389 13.8462 3.46154V2.76923H15.9231C16.3054 2.76923 16.6154 3.07919 16.6154 3.46154V5.53846H1.38462V3.46154C1.38462 3.07919 1.69458 2.76923 2.07692 2.76923H4.15385V3.46154C4.15385 3.84389 4.46381 4.15385 4.84615 4.15385C5.2285 4.15385 5.53846 3.84389 5.53846 3.46154V2.76923H12.4615ZM1.38462 6.92308V15.9231C1.38462 16.3054 1.69458 16.6154 2.07692 16.6154H15.9231C16.3054 16.6154 16.6154 16.3054 16.6154 15.9231V6.92308H1.38462ZM8.30769 9C8.30769 8.61765 8.61765 8.30769 9 8.30769C9.38235 8.30769 9.69231 8.61765 9.69231 9C9.69231 9.38235 9.38235 9.69231 9 9.69231C8.61765 9.69231 8.30769 9.38235 8.30769 9ZM11.7692 8.30769C11.3869 8.30769 11.0769 8.61765 11.0769 9C11.0769 9.38235 11.3869 9.69231 11.7692 9.69231C12.1516 9.69231 12.4615 9.38235 12.4615 9C12.4615 8.61765 12.1516 8.30769 11.7692 8.30769ZM13.8462 9C13.8462 8.61765 14.1562 8.30769 14.5385 8.30769C14.9208 8.30769 15.2308 8.61765 15.2308 9C15.2308 9.38235 14.9208 9.69231 14.5385 9.69231C14.1562 9.69231 13.8462 9.38235 13.8462 9ZM14.5385 11.0769C14.1562 11.0769 13.8462 11.3869 13.8462 11.7692C13.8462 12.1516 14.1562 12.4615 14.5385 12.4615C14.9208 12.4615 15.2308 12.1516 15.2308 11.7692C15.2308 11.3869 14.9208 11.0769 14.5385 11.0769ZM11.0769 11.7692C11.0769 11.3869 11.3869 11.0769 11.7692 11.0769C12.1516 11.0769 12.4615 11.3869 12.4615 11.7692C12.4615 12.1516 12.1516 12.4615 11.7692 12.4615C11.3869 12.4615 11.0769 12.1516 11.0769 11.7692ZM9 11.0769C8.61765 11.0769 8.30769 11.3869 8.30769 11.7692C8.30769 12.1516 8.61765 12.4615 9 12.4615C9.38235 12.4615 9.69231 12.1516 9.69231 11.7692C9.69231 11.3869 9.38235 11.0769 9 11.0769ZM5.53846 11.7692C5.53846 11.3869 5.84842 11.0769 6.23077 11.0769C6.61312 11.0769 6.92308 11.3869 6.92308 11.7692C6.92308 12.1516 6.61312 12.4615 6.23077 12.4615C5.84842 12.4615 5.53846 12.1516 5.53846 11.7692ZM3.46154 11.0769C3.07919 11.0769 2.76923 11.3869 2.76923 11.7692C2.76923 12.1516 3.07919 12.4615 3.46154 12.4615C3.84389 12.4615 4.15385 12.1516 4.15385 11.7692C4.15385 11.3869 3.84389 11.0769 3.46154 11.0769ZM2.76923 14.5385C2.76923 14.1562 3.07919 13.8462 3.46154 13.8462C3.84389 13.8462 4.15385 14.1562 4.15385 14.5385C4.15385 14.9208 3.84389 15.2308 3.46154 15.2308C3.07919 15.2308 2.76923 14.9208 2.76923 14.5385ZM6.23077 13.8462C5.84842 13.8462 5.53846 14.1562 5.53846 14.5385C5.53846 14.9208 5.84842 15.2308 6.23077 15.2308C6.61312 15.2308 6.92308 14.9208 6.92308 14.5385C6.92308 14.1562 6.61312 13.8462 6.23077 13.8462ZM8.30769 14.5385C8.30769 14.1562 8.61765 13.8462 9 13.8462C9.38235 13.8462 9.69231 14.1562 9.69231 14.5385C9.69231 14.9208 9.38235 15.2308 9 15.2308C8.61765 15.2308 8.30769 14.9208 8.30769 14.5385ZM11.7692 13.8462C11.3869 13.8462 11.0769 14.1562 11.0769 14.5385C11.0769 14.9208 11.3869 15.2308 11.7692 15.2308C12.1516 15.2308 12.4615 14.9208 12.4615 14.5385C12.4615 14.1562 12.1516 13.8462 11.7692 13.8462Z" fill="white"/>
</svg>
