<svg width="19" height="19" viewBox="0 0 19 19" fill="none" xmlns="http://www.w3.org/2000/svg">
<path d="M9.50004 1.5835C5.14587 1.5835 1.58337 5.146 1.58337 9.50016C1.58337 13.8543 5.14587 17.4168 9.50004 17.4168C13.8542 17.4168 17.4167 13.8543 17.4167 9.50016C17.4167 5.146 13.8542 1.5835 9.50004 1.5835ZM9.50004 15.8335C6.00879 15.8335 3.16671 12.9914 3.16671 9.50016C3.16671 6.00891 6.00879 3.16683 9.50004 3.16683C12.9913 3.16683 15.8334 6.00891 15.8334 9.50016C15.8334 12.9914 12.9913 15.8335 9.50004 15.8335ZM9.89587 5.54183H8.70837V10.2918L12.825 12.8252L13.4584 11.796L9.89587 9.6585V5.54183Z" fill="white"/>
</svg>
