<svg width="31" height="27" viewBox="0 0 31 27" fill="none" xmlns="http://www.w3.org/2000/svg">
<path d="M0 1H3.31252V27" stroke="white"/>
<path fill-rule="evenodd" clip-rule="evenodd" d="M6.07294 3.78662H3.3125V20.9013H5.52085V23.1097H30.3648V3.78662H6.07294Z" stroke="white"/>
<path d="M11.5939 6.54639H7.17717C6.56735 6.54639 6.073 7.04074 6.073 7.65056V8.20265C6.073 8.81247 6.56735 9.30682 7.17717 9.30682H11.5939C12.2037 9.30682 12.698 8.81247 12.698 8.20265V7.65056C12.698 7.04074 12.2037 6.54639 11.5939 6.54639Z" stroke="white"/>
<path d="M11.5939 11.5156H7.17717C6.56735 11.5156 6.073 12.01 6.073 12.6198V13.1719C6.073 13.7817 6.56735 14.2761 7.17717 14.2761H11.5939C12.2037 14.2761 12.698 13.7817 12.698 13.1719V12.6198C12.698 12.01 12.2037 11.5156 11.5939 11.5156Z" stroke="white"/>
<path fill-rule="evenodd" clip-rule="evenodd" d="M17.6667 9.30713H25.396V16.4843H17.6667V9.30713Z" stroke="white"/>
<path d="M17.6668 10.4111H16.5626" stroke="white" stroke-linecap="square"/>
<path d="M17.6668 12.0674H16.5626" stroke="white" stroke-linecap="square"/>
<path d="M17.6668 13.7241H16.5626" stroke="white" stroke-linecap="square"/>
<path d="M17.6668 15.3799H16.5626" stroke="white" stroke-linecap="square"/>
<path d="M26.5002 10.4111H25.396" stroke="white" stroke-linecap="square"/>
<path d="M26.5002 12.0674H25.396" stroke="white" stroke-linecap="square"/>
<path d="M26.5002 13.7241H25.396" stroke="white" stroke-linecap="square"/>
<path d="M26.5002 15.3799H25.396" stroke="white" stroke-linecap="square"/>
<path d="M11.5937 20.901C11.8986 20.901 12.1458 20.6539 12.1458 20.349C12.1458 20.0441 11.8986 19.7969 11.5937 19.7969C11.2888 19.7969 11.0416 20.0441 11.0416 20.349C11.0416 20.6539 11.2888 20.901 11.5937 20.901Z" stroke="white" stroke-linecap="square"/>
<path d="M14.9063 20.901C15.2112 20.901 15.4584 20.6539 15.4584 20.349C15.4584 20.0441 15.2112 19.7969 14.9063 19.7969C14.6014 19.7969 14.3542 20.0441 14.3542 20.349C14.3542 20.6539 14.6014 20.901 14.9063 20.901Z" stroke="white" stroke-linecap="square"/>
<path d="M25.3958 20.901C25.7007 20.901 25.9479 20.6539 25.9479 20.349C25.9479 20.0441 25.7007 19.7969 25.3958 19.7969C25.0909 19.7969 24.8438 20.0441 24.8438 20.349C24.8438 20.6539 25.0909 20.901 25.3958 20.901Z" stroke="white" stroke-linecap="square"/>
<path fill-rule="evenodd" clip-rule="evenodd" d="M1.10413 7.65088H3.31247V13.1718H1.10413V7.65088Z" stroke="white" stroke-linecap="square"/>
</svg>
