<svg width="24" height="18" viewBox="0 0 24 18" fill="none" xmlns="http://www.w3.org/2000/svg">
<path d="M8.74305 14.6569C9.86187 15.7757 11.2873 16.5376 12.8392 16.8463C14.391 17.155 15.9996 16.9965 17.4614 16.391C18.9232 15.7855 20.1726 14.7602 21.0517 13.4446C21.9307 12.129 22.3999 10.5823 22.3999 9C22.3999 7.41775 21.9307 5.87103 21.0517 4.55544C20.1726 3.23985 18.9232 2.21447 17.4614 1.60896C15.9996 1.00346 14.391 0.845036 12.8392 1.15372C11.2873 1.4624 9.86187 2.22433 8.74305 3.34314" stroke="white" stroke-width="2"/>
<path d="M14.4 9L8.4 5.5359V12.4641L14.4 9ZM0 9.6L9 9.6V8.4L0 8.4L0 9.6Z" fill="white"/>
<circle cx="14.4" cy="8.9999" r="1.35" fill="white"/>
</svg>
