<svg width="29" height="23" viewBox="0 0 29 23" fill="none" xmlns="http://www.w3.org/2000/svg">
<path d="M28.125 9.54686V10.3281C28.125 10.9753 27.6003 11.5 26.9531 11.5H26.5625L25.2875 20.4252C25.1225 21.5798 24.1336 22.4375 22.9673 22.4375H5.15771C3.99136 22.4375 3.00249 21.5798 2.8375 20.4252L1.5625 11.5H1.17188C0.524658 11.5 0 10.9753 0 10.3281V9.54686C0 8.89964 0.524658 8.37499 1.17188 8.37499H4.46001L9.67388 1.20599C10.1814 0.50814 11.1586 0.353794 11.8565 0.861363C12.5544 1.36893 12.7087 2.34613 12.2012 3.04403L8.32407 8.37499H19.8009L15.9238 3.04398C15.4163 2.34613 15.5706 1.36888 16.2685 0.861314C16.9663 0.353745 17.9436 0.508042 18.4512 1.20594L23.665 8.37499H26.9531C27.6003 8.37499 28.125 8.89964 28.125 9.54686ZM15.2344 18.1406V12.6719C15.2344 12.0246 14.7097 11.5 14.0625 11.5C13.4153 11.5 12.8906 12.0246 12.8906 12.6719V18.1406C12.8906 18.7878 13.4153 19.3125 14.0625 19.3125C14.7097 19.3125 15.2344 18.7878 15.2344 18.1406ZM20.7031 18.1406V12.6719C20.7031 12.0246 20.1785 11.5 19.5312 11.5C18.884 11.5 18.3594 12.0246 18.3594 12.6719V18.1406C18.3594 18.7878 18.884 19.3125 19.5312 19.3125C20.1785 19.3125 20.7031 18.7878 20.7031 18.1406ZM9.76562 18.1406V12.6719C9.76562 12.0246 9.24097 11.5 8.59375 11.5C7.94653 11.5 7.42188 12.0246 7.42188 12.6719V18.1406C7.42188 18.7878 7.94653 19.3125 8.59375 19.3125C9.24097 19.3125 9.76562 18.7878 9.76562 18.1406Z" fill="white"/>
</svg>
