<svg width="29" height="25" viewBox="0 0 29 25" fill="none" xmlns="http://www.w3.org/2000/svg">
<g clip-path="url(#clip0_62_318)">
<path d="M28.125 10.5469V11.3281C28.125 11.9754 27.6003 12.5 26.9531 12.5H26.5625L25.2875 21.4252C25.1225 22.5798 24.1336 23.4375 22.9673 23.4375H5.15771C3.99136 23.4375 3.00249 22.5798 2.8375 21.4252L1.5625 12.5H1.17188C0.524658 12.5 0 11.9754 0 11.3281V10.5469C0 9.89967 0.524658 9.37502 1.17188 9.37502H4.46001L9.67388 2.20602C10.1814 1.50817 11.1586 1.35382 11.8565 1.86139C12.5544 2.36896 12.7087 3.34616 12.2012 4.04406L8.32407 9.37502H19.8009L15.9238 4.04401C15.4163 3.34616 15.5706 2.36891 16.2685 1.86134C16.9663 1.35378 17.9436 1.50807 18.4512 2.20597L23.665 9.37502H26.9531C27.6003 9.37502 28.125 9.89967 28.125 10.5469ZM15.2344 19.1406V13.6719C15.2344 13.0247 14.7097 12.5 14.0625 12.5C13.4153 12.5 12.8906 13.0247 12.8906 13.6719V19.1406C12.8906 19.7879 13.4153 20.3125 14.0625 20.3125C14.7097 20.3125 15.2344 19.7879 15.2344 19.1406ZM20.7031 19.1406V13.6719C20.7031 13.0247 20.1785 12.5 19.5312 12.5C18.884 12.5 18.3594 13.0247 18.3594 13.6719V19.1406C18.3594 19.7879 18.884 20.3125 19.5312 20.3125C20.1785 20.3125 20.7031 19.7879 20.7031 19.1406ZM9.76562 19.1406V13.6719C9.76562 13.0247 9.24097 12.5 8.59375 12.5C7.94653 12.5 7.42188 13.0247 7.42188 13.6719V19.1406C7.42188 19.7879 7.94653 20.3125 8.59375 20.3125C9.24097 20.3125 9.76562 19.7879 9.76562 19.1406Z" fill="white" fill-opacity="0.5"/>
</g>
<defs>
<clipPath id="clip0_62_318">
<rect width="28.125" height="25" fill="white"/>
</clipPath>
</defs>
</svg>
