<svg width="164" height="22" viewBox="0 0 164 22" fill="none" xmlns="http://www.w3.org/2000/svg">
<path fill-rule="evenodd" clip-rule="evenodd" d="M58.0026 8.11823H49.4194V9.99076H57.7146V12.6009H49.4194V17.1593H46.8437V5.5078H58.0026V8.11823ZM42.8474 9.0264C42.8474 8.77457 42.7651 8.57012 42.6009 8.39986C42.4323 8.22587 42.2266 8.13922 41.9841 8.13922H34.9335C34.7017 8.13922 34.4996 8.22587 34.3277 8.39986C34.1594 8.57012 34.0735 8.77457 34.0735 9.0264V13.6509C34.0735 13.8946 34.1594 14.1048 34.3277 14.2744C34.4996 14.445 34.7017 14.5303 34.9335 14.5303H41.9841C42.2266 14.5303 42.4323 14.445 42.6009 14.2744C42.7651 14.1048 42.8474 13.8946 42.8474 13.6509V9.0264ZM45.4231 13.6509C45.4231 14.118 45.3334 14.5661 45.1541 14.9879C44.9745 15.4137 44.7317 15.784 44.4249 16.1022C44.1145 16.4194 43.7482 16.6712 43.3261 16.8564C42.8999 17.0496 42.4477 17.1403 41.9687 17.1403H34.9482C34.4735 17.1403 34.025 17.053 33.6025 16.8682C33.1837 16.6861 32.8174 16.4329 32.5033 16.1188C32.1896 15.805 31.9427 15.432 31.7634 15.0106C31.5841 14.5868 31.4941 14.1312 31.4941 13.6509V9.0264C31.4941 8.54372 31.5841 8.08811 31.7744 7.65687C31.9537 7.22699 32.2083 6.85296 32.5184 6.5429C32.8325 6.23251 33.1991 5.98812 33.6175 5.80127C34.0363 5.62153 34.4812 5.53048 34.9482 5.53048H41.9687C42.4363 5.53048 42.8812 5.62153 43.2997 5.81075C43.7221 5.9959 44.0884 6.24943 44.3988 6.56693C44.7093 6.88681 44.9595 7.25542 45.1464 7.67921C45.3298 8.10097 45.4231 8.54913 45.4231 9.0264V13.6509ZM30.3799 13.596C30.3799 14.1782 30.2679 14.689 30.0437 15.1257C29.8193 15.5684 29.5129 15.9377 29.1205 16.2325C28.7278 16.5256 28.2679 16.7507 27.7374 16.9115C27.2065 17.0591 26.6305 17.1403 26.0177 17.1403H18.1034V14.5303H26.492C26.8138 14.5303 27.0868 14.449 27.3146 14.2899C27.5427 14.1312 27.6547 13.9003 27.6547 13.596C27.6547 13.2988 27.539 13.0585 27.3035 12.8886C27.0717 12.7146 26.8024 12.6293 26.492 12.6293H21.9391C21.3484 12.6293 20.7911 12.5555 20.2793 12.4022C19.7595 12.2438 19.311 12.0088 18.9296 11.7062C18.5483 11.4016 18.2493 11.0272 18.0325 10.5862C17.8117 10.1455 17.707 9.63501 17.707 9.0545C17.707 8.48685 17.8117 7.98013 18.0325 7.54517C18.2493 7.0987 18.5483 6.73144 18.9296 6.44237C19.311 6.14348 19.7595 5.91839 20.2793 5.76336C20.7911 5.60596 21.3484 5.53048 21.9391 5.53048H29.8193V8.13922H21.524C21.1765 8.13922 20.8848 8.22994 20.6567 8.40189C20.4289 8.57756 20.3165 8.81045 20.3165 9.08462C20.3165 9.36658 20.4248 9.59303 20.6493 9.76363C20.8734 9.93389 21.1654 10.0192 21.524 10.0192H26.0177C26.6529 10.0192 27.2359 10.1079 27.7668 10.2876C28.298 10.467 28.7576 10.7131 29.1466 11.0387C29.5316 11.3559 29.8343 11.738 30.0511 12.175C30.2679 12.6049 30.3799 13.0832 30.3799 13.596" fill="#969DA7"/>
<path fill-rule="evenodd" clip-rule="evenodd" d="M70.2985 8.11823H66.0591V17.1593H63.4797V8.11823H59.3115V5.5078H70.2985V8.11823Z" fill="#969DA7"/>
<path fill-rule="evenodd" clip-rule="evenodd" d="M12.0362 12.5857H12.0399V4.9822V4.97848V3.49386C12.0399 3.24947 12.1258 3.03385 12.2941 2.86731C12.4583 2.69908 12.6754 2.61209 12.9072 2.61209H14.6791V-3.65529e-05C12.9969 -3.65529e-05 14.5934 0.00199456 12.9072 0.00199456C12.4436 0.00199456 11.9947 0.0889863 11.5762 0.270417C11.1578 0.457602 10.7912 0.707069 10.4737 1.02525C10.1633 1.33734 9.91277 1.71002 9.73315 2.13144C9.56155 2.54778 9.46789 2.99628 9.46421 3.46881V3.49386V4.56958V12.1751V13.6601C9.46421 13.9058 9.37824 14.1177 9.20999 14.29C9.04173 14.4582 8.82866 14.5473 8.59317 14.5473H0.320312V17.1594C2.00251 17.1594 6.91097 17.1574 8.59317 17.1574C9.06415 17.1574 9.50903 17.0629 9.92749 16.8849C10.3463 16.6973 10.7126 16.4516 11.0267 16.1324C11.3408 15.8163 11.5873 15.4419 11.7669 15.0222C11.9429 14.6095 12.0362 14.161 12.0362 13.6828V13.6601V12.5857ZM13.7783 4.06083H16.3539V16.2191V16.2228V17.7077C16.3539 17.9518 16.4399 18.1654 16.6081 18.3356C16.7764 18.5022 16.9854 18.5909 17.2213 18.5909H18.9071H163.086V21.2013H18.9071H17.2213C16.754 21.2013 16.3091 21.1123 15.8903 20.9305C15.4718 20.7437 15.1015 20.4955 14.7911 20.178C14.477 19.8639 14.2305 19.4953 14.0512 19.0698C13.8756 18.6535 13.7819 18.207 13.7783 17.7341V17.7077V16.2191V4.06083Z" fill="#969DA7"/>
<path fill-rule="evenodd" clip-rule="evenodd" d="M161.769 17.1403H158.266L154.748 13.5029C154.599 13.3499 154.479 13.2101 154.382 13.0832C154.389 13.0832 154.314 13.1665 154.158 13.3235C153.997 13.484 153.791 13.6884 153.537 13.9342C153.283 14.1857 153.006 14.4449 152.703 14.7327C152.4 15.0143 152.117 15.2847 151.858 15.5268C151.597 15.7786 151.376 15.9844 151.193 16.1587C151.017 16.3307 150.92 16.4234 150.909 16.4309V17.1403H148.333V5.50779H150.909V13.0527C151.081 12.8144 151.272 12.5893 151.481 12.3737L158.266 5.50779H161.769L156.546 10.7943C156.46 10.8813 156.37 10.972 156.266 11.0631C156.165 11.1538 156.056 11.2445 155.941 11.3451C156.027 11.409 156.12 11.4828 156.221 11.5698C156.322 11.6551 156.43 11.7495 156.546 11.8613L161.769 17.1403ZM147.152 13.5957C147.152 14.1782 147.044 14.689 146.819 15.1257C146.595 15.5681 146.288 15.9374 145.896 16.2322C145.499 16.5256 145.04 16.7507 144.509 16.9112C143.978 17.0591 143.406 17.1403 142.789 17.1403H134.875V14.5302H143.267C143.586 14.5302 143.858 14.449 144.086 14.2899C144.314 14.1308 144.43 13.9003 144.43 13.5957C144.43 13.2985 144.314 13.0582 144.079 12.8882C143.847 12.7146 143.574 12.6293 143.267 12.6293H138.715C138.12 12.6293 137.567 12.5555 137.047 12.4022C136.535 12.2434 136.086 12.0088 135.705 11.7059C135.324 11.4016 135.021 11.0269 134.804 10.5862C134.587 10.1454 134.479 9.635 134.479 9.05415C134.479 8.48684 134.587 7.98012 134.804 7.54482C135.021 7.09869 135.324 6.73143 135.705 6.44236C136.086 6.14347 136.535 5.91838 137.047 5.76335C137.567 5.60595 138.12 5.53047 138.715 5.53047H146.595V8.13887H138.296C137.948 8.13887 137.657 8.22993 137.432 8.40188C137.204 8.57756 137.088 8.81044 137.088 9.08461C137.088 9.36624 137.201 9.59303 137.425 9.76363C137.645 9.93389 137.937 10.0192 138.296 10.0192H142.789C143.425 10.0192 144.012 10.1079 144.539 10.2876C145.07 10.467 145.529 10.7131 145.918 11.0387C146.307 11.3559 146.606 11.738 146.823 12.175C147.044 12.6049 147.152 13.0832 147.152 13.5957V13.5957ZM133.125 17.1593H129.885L123.877 10.4728C123.548 10.1041 123.133 9.50434 122.632 8.6571V17.1593H120.049V5.50779H122.954L129.413 12.6141C129.799 13.0301 130.172 13.5408 130.546 14.144V5.50779H133.125V17.1593ZM118.416 12.6009H113.268V9.99075H118.416V12.6009ZM109.544 13.5595C109.544 13.2778 109.469 13.0375 109.313 12.8544C109.159 12.6577 108.946 12.5707 108.685 12.5707H101.406V14.5489H108.685C108.946 14.5489 109.159 14.449 109.313 14.2523C109.469 14.0628 109.544 13.8265 109.544 13.5595ZM109.529 9.02978C109.529 8.77016 109.451 8.55522 109.298 8.38089C109.141 8.20522 108.942 8.11823 108.685 8.11823H101.406V9.9261H108.685C108.942 9.9261 109.141 9.84283 109.298 9.6763C109.451 9.50807 109.529 9.29245 109.529 9.02978ZM112.124 13.662C112.124 14.1325 112.03 14.5868 111.854 15.0106C111.672 15.432 111.425 15.805 111.111 16.1184C110.797 16.4329 110.434 16.6861 110.019 16.8773C109.608 17.0591 109.163 17.1593 108.685 17.1593H98.8267V5.50779H108.685C109.163 5.50779 109.604 5.59309 110.012 5.74642C110.423 5.90518 110.771 6.12418 111.073 6.40817C111.369 6.69386 111.601 7.03032 111.765 7.41992C111.929 7.81155 112.012 8.25227 112.012 8.73462C112.012 8.99559 111.975 9.25284 111.911 9.50807C111.84 9.76363 111.746 10.0077 111.623 10.2311C111.5 10.4579 111.354 10.6525 111.189 10.817C111.029 10.9839 110.845 11.099 110.644 11.165C111.088 11.3373 111.447 11.6494 111.716 12.109C111.989 12.5684 112.124 13.0832 112.124 13.662V13.662ZM89.9072 8.13887H87.6417H87.634C87.4022 8.14293 87.2041 8.22993 87.0359 8.39985C86.868 8.57011 86.7817 8.77456 86.7817 9.02606V11.0387H94.9237V8.13887H89.9072ZM86.7817 13.6505V17.1593H84.199V9.02606C84.199 8.54912 84.292 8.10096 84.4679 7.6792C84.6509 7.25541 84.8974 6.8868 85.2155 6.56692C85.5253 6.24942 85.8919 5.99589 86.3033 5.8104C86.7144 5.62152 87.1593 5.53047 87.6417 5.53047H97.5034V17.1593H94.9237V13.6505H86.7817ZM82.8941 17.1593H71.5967V5.50779H74.176V14.5489H82.8941V17.1593Z" fill="#969DA7"/>
</svg>
